<?xml version="1.0" encoding="UTF-8"?>
<svg id="Layer_2" data-name="Layer 2" xmlns="http://www.w3.org/2000/svg" xmlns:xlink="http://www.w3.org/1999/xlink" viewBox="0 0 520 550">
  <defs>
    <style>
      .cls-1 {
        fill: #343066;
      }

      .cls-2 {
        stroke-width: 1.53px;
      }

      .cls-2, .cls-3, .cls-4, .cls-5, .cls-6 {
        fill: #fff;
      }

      .cls-2, .cls-4, .cls-5, .cls-7, .cls-6, .cls-8, .cls-9 {
        stroke-linecap: round;
        stroke-linejoin: round;
      }

      .cls-2, .cls-5, .cls-7 {
        stroke: #343066;
      }

      .cls-4, .cls-7 {
        stroke-width: 1.54px;
      }

      .cls-4, .cls-6, .cls-9 {
        stroke: #54548f;
      }

      .cls-10 {
        fill: url(#radial-gradient);
      }

      .cls-11 {
        fill: #54548f;
      }

      .cls-5 {
        stroke-width: 1.41px;
      }

      .cls-7 {
        stroke-dasharray: 2.31 6.93;
      }

      .cls-7, .cls-8, .cls-9 {
        fill: none;
      }

      .cls-6 {
        stroke-width: 1.97px;
      }

      .cls-8 {
        stroke: #fff;
        stroke-width: 2.28px;
      }

      .cls-9 {
        stroke-width: 1.77px;
      }

      .cls-12 {
        fill: #d1cfe8;
      }
    </style>
    <radialGradient id="radial-gradient" cx="263.36" cy="265.95" fx="263.36" fy="265.95" r="571.14" gradientUnits="userSpaceOnUse">
      <stop offset="0" stop-color="#54548f"/>
      <stop offset="1" stop-color="#343066"/>
    </radialGradient>
  </defs>
  <g id="Layer_1-2" data-name="Layer 1">
    <g>
      <rect class="cls-10" width="520" height="550"/>
      <g>
        <g>
          <g>
            <rect class="cls-1" x="207.44" y="366.33" width="105.12" height="72.71"/>
            <rect class="cls-11" x="127.93" y="246.19" width="264.14" height="158.69" rx="7.79" ry="7.79"/>
            <rect class="cls-11" x="199.99" y="434.89" width="120.01" height="9.16"/>
          </g>
          <rect class="cls-12" x="138.46" y="255.46" width="243.07" height="141.12" rx="7.17" ry="7.17"/>
        </g>
        <g>
          <polygon class="cls-7" points="159.51 138 354.25 138 354.25 199.42 394.45 199.42 394.45 316.55 354.25 316.55 354.25 406.5 159.51 406.5 159.51 138"/>
          <rect class="cls-2" x="175.56" y="152.73" width="165.02" height="240.22"/>
          <g>
            <rect class="cls-12" x="187.14" y="162.95" width="140.44" height="23.76"/>
            <rect class="cls-12" x="187.14" y="330.89" width="140.44" height="48.84"/>
            <rect class="cls-12" x="187.14" y="196.53" width="34.5" height="124.54"/>
            <rect class="cls-12" x="233.38" y="196.53" width="94.2" height="57.36"/>
            <rect class="cls-12" x="233.38" y="263.71" width="94.2" height="57.36"/>
          </g>
          <g>
            <rect class="cls-1" x="117" y="217.05" width="85.03" height="54.58" rx="8.76" ry="8.76"/>
            <path class="cls-3" d="M148.3,233.98l-.7,20.57c-.06,1.66,1.7,2.76,3.17,1.98l19.51-10.28c1.52-.8,1.54-2.98.03-3.81l-18.82-10.28c-1.41-.77-3.14.21-3.19,1.82Z"/>
          </g>
          <path class="cls-6" d="M175.94,145.73s0-.02,0-.03c0-8.01-6.49-14.5-14.5-14.5-6.13,0-11.36,3.81-13.48,9.19-1.48-.8-3.18-1.25-4.99-1.25-5.82,0-10.53,4.72-10.53,10.53s4.72,10.53,10.53,10.53h32.29c4,0,7.25-3.25,7.25-7.25,0-3.77-2.88-6.87-6.57-7.22Z"/>
          <g>
            <circle class="cls-1" cx="258.07" cy="138" r="32.05"/>
            <g>
              <polyline class="cls-8" points="266.95 130.08 277.17 138.77 266.36 147.47"/>
              <line class="cls-8" x1="262.04" y1="130.08" x2="254.28" y2="147.47"/>
              <polyline class="cls-8" points="249.2 130.08 238.98 138.77 249.79 147.47"/>
            </g>
          </g>
          <g>
            <circle class="cls-2" cx="354.25" cy="199.42" r="20.24"/>
            <path class="cls-1" d="M367.51,201.98v-5.12c0-.66-.54-1.2-1.2-1.2h-1.77c-.11-.29-.22-.57-.35-.85l1.25-1.25c.47-.47.47-1.23,0-1.7l-3.62-3.62c-.47-.47-1.23-.47-1.7,0l-1.25,1.25c-.28-.13-.56-.25-.85-.35v-1.77c0-.66-.54-1.2-1.2-1.2h-5.12c-.66,0-1.2.54-1.2,1.2v1.77c-.29.11-.57.22-.85.35l-1.25-1.25c-.47-.47-1.23-.47-1.7,0l-3.62,3.62c-.47.47-.47,1.23,0,1.7l1.25,1.25c-.13.28-.25.56-.35.85h-1.77c-.66,0-1.2.54-1.2,1.2v5.12c0,.66.54,1.2,1.2,1.2h1.77c.11.29.22.57.35.85l-1.25,1.25c-.47.47-.47,1.23,0,1.7l3.62,3.62c.47.47,1.23.47,1.7,0l1.25-1.25c.28.13.56.25.85.35v1.77c0,.66.54,1.2,1.2,1.2h5.12c.66,0,1.2-.54,1.2-1.2v-1.77c.29-.11.57-.22.85-.35l1.25,1.25c.47.47,1.23.47,1.7,0l3.62-3.62c.47-.47.47-1.23,0-1.7l-1.25-1.25c.13-.28.25-.56.35-.85h1.77c.66,0,1.2-.54,1.2-1.2ZM361.35,198.2c.81,4.93-3.39,9.14-8.33,8.33-2.99-.49-5.4-2.9-5.89-5.89-.81-4.93,3.39-9.14,8.33-8.33,2.99.49,5.4,2.9,5.89,5.89Z"/>
            <circle class="cls-1" cx="354.25" cy="199.42" r="3.3"/>
          </g>
          <g>
            <rect class="cls-4" x="278.96" y="274.4" width="124.04" height="49.04" rx="4.75" ry="4.75"/>
            <g>
              <rect class="cls-12" x="333.41" y="313.97" width="61.64" height="1.6" rx=".8" ry=".8"/>
              <rect class="cls-12" x="333.41" y="308.72" width="61.64" height="1.6" rx=".8" ry=".8"/>
              <rect class="cls-12" x="333.41" y="303.46" width="61.64" height="1.6" rx=".8" ry=".8"/>
              <rect class="cls-12" x="333.41" y="298.21" width="61.64" height="1.6" rx=".8" ry=".8"/>
              <rect class="cls-12" x="333.41" y="292.96" width="61.64" height="1.6" rx=".8" ry=".8"/>
              <rect class="cls-12" x="333.41" y="287.71" width="61.64" height="1.6" rx=".8" ry=".8"/>
              <rect class="cls-12" x="333.41" y="282.46" width="61.64" height="1.6" rx=".8" ry=".8"/>
            </g>
            <circle class="cls-1" cx="304.71" cy="299.18" r="20.69" transform="translate(-44.46 545.02) rotate(-79.62)"/>
            <path class="cls-3" d="M290.17,310.51c3.3,4.44,8.59,7.31,14.54,7.31s11.24-2.88,14.54-7.31c-.96-3.22-3.61-5.93-7.19-7.51.99-1.44,1.57-3.18,1.57-5.06,0-4.93-4-8.93-8.93-8.93s-8.93,4-8.93,8.93c0,1.88.58,3.62,1.57,5.06-3.58,1.59-6.23,4.29-7.19,7.51Z"/>
          </g>
          <g>
            <g>
              <polygon class="cls-5" points="193.41 400.34 151.89 400.34 151.89 355.2 187.42 355.2 193.41 360.46 193.41 400.34"/>
              <line class="cls-9" x1="156.6" y1="370.79" x2="182.16" y2="370.79"/>
              <line class="cls-9" x1="156.6" y1="367.35" x2="182.16" y2="367.35"/>
              <line class="cls-9" x1="156.6" y1="363.9" x2="182.16" y2="363.9"/>
              <line class="cls-9" x1="156.6" y1="360.46" x2="182.16" y2="360.46"/>
              <polygon class="cls-5" points="187.42 355.2 187.42 360.27 193.41 360.46 187.42 355.2"/>
            </g>
            <path class="cls-2" d="M187.68,381.1l-4.31-5.43c-.37-.46-.93-.73-1.52-.73h-36.58c-1.07,0-1.94.87-1.94,1.94v38.42c0,1.07.87,1.94,1.94,1.94h52.31c1.07,0,1.94-.87,1.94-1.94v-31.52c0-1.07-.87-1.94-1.94-1.94h-8.38c-.59,0-1.15-.27-1.52-.73Z"/>
          </g>
          <g>
            <path class="cls-1" d="M377.2,386.21h-52.33c-2.79,0-5.06,2.27-5.06,5.06v29.07c0,2.79,2.27,5.06,5.06,5.06h17.71l-3.79,6.92c-.52.94.56,1.95,1.47,1.38l13.04-8.29h23.92c2.79,0,5.06-2.27,5.06-5.06v-29.07c0-2.79-2.27-5.06-5.06-5.06Z"/>
            <path class="cls-3" d="M338.07,406.16c0,2.25-1.83,4.08-4.08,4.08s-4.08-1.83-4.08-4.08,1.83-4.08,4.08-4.08,4.08,1.83,4.08,4.08Z"/>
            <path class="cls-3" d="M355.11,406.16c0,2.25-1.83,4.08-4.08,4.08s-4.08-1.83-4.08-4.08,1.83-4.08,4.08-4.08,4.08,1.83,4.08,4.08Z"/>
            <path class="cls-3" d="M372.16,406.16c0,2.25-1.83,4.08-4.08,4.08s-4.08-1.83-4.08-4.08,1.83-4.08,4.08-4.08,4.08,1.83,4.08,4.08Z"/>
          </g>
        </g>
      </g>
    </g>
  </g>
</svg>