<?xml version="1.0" encoding="UTF-8"?>
<svg id="Layer_2" data-name="Layer 2" xmlns="http://www.w3.org/2000/svg" xmlns:xlink="http://www.w3.org/1999/xlink" viewBox="0 0 520 550">
  <defs>
    <style>
      .cls-1 {
        fill: #f15755;
      }

      .cls-2 {
        fill: #151c4c;
      }

      .cls-3 {
        fill: #0c4a24;
      }

      .cls-4 {
        fill: #fff;
      }

      .cls-5 {
        stroke: #00a998;
      }

      .cls-5, .cls-6 {
        stroke-miterlimit: 10;
      }

      .cls-5, .cls-6, .cls-7, .cls-8, .cls-9, .cls-10 {
        fill: none;
      }

      .cls-5, .cls-6, .cls-8, .cls-10 {
        stroke-width: .75px;
      }

      .cls-6, .cls-7, .cls-10 {
        stroke: #fff;
      }

      .cls-11 {
        clip-path: url(#clippath-1);
      }

      .cls-12 {
        fill: #071d1a;
      }

      .cls-13 {
        fill: #00a998;
      }

      .cls-7, .cls-8, .cls-9, .cls-10 {
        stroke-linecap: round;
        stroke-linejoin: round;
      }

      .cls-7, .cls-9 {
        stroke-width: .5px;
      }

      .cls-8, .cls-9 {
        stroke: #151c4c;
      }

      .cls-14 {
        fill: #f16263;
      }

      .cls-15 {
        fill: #ffca57;
      }

      .cls-16 {
        fill: #f79a80;
      }

      .cls-17 {
        fill: #36bbe3;
      }

      .cls-18 {
        clip-path: url(#clippath);
      }
    </style>
    <clipPath id="clippath">
      <polygon class="cls-16" points="132.27 217.57 143.48 219.48 144.19 225.48 132.41 225.79 132.27 217.57"/>
    </clipPath>
    <clipPath id="clippath-1">
      <polygon class="cls-16" points="348.42 220.69 340.92 229.24 344.96 235.61 354.72 228.71 348.42 220.69"/>
    </clipPath>
  </defs>
  <g id="Layer_1-2" data-name="Layer 1">
    <g>
      <rect class="cls-12" width="520" height="550"/>
      <g>
        <g>
          <path class="cls-3" d="M387.23,207.24c-21.92-32.07-47.5-69.05-91.09-66.76-40.84,2.15-39.92,37.93-68.85,56.68-30.16,19.54-65.57,6.03-94.38,34.15-27.76,27.08-34.23,70.68-12.99,103.58,42.09,65.21,155.77,84,223.5,56.16,75.51-31.03,87.92-119.27,43.81-183.81Z"/>
          <path class="cls-3" d="M215.05,174.43c-12.3,31.14-85.77,50.25-94.83,7.42-12.42-58.67,106.84-53.12,94.83-7.42Z"/>
        </g>
        <g>
          <g>
            <g>
              <path class="cls-4" d="M146.42,198.66h227.15v141.68c0,5.49-4.45,9.94-9.94,9.94h-207.27c-5.49,0-9.94-4.45-9.94-9.94v-141.68h0Z"/>
              <g>
                <g>
                  <g>
                    <rect class="cls-5" x="226.81" y="212.74" width="115.98" height="123.47" transform="translate(559.28 -10.33) rotate(90)"/>
                    <rect class="cls-2" x="219.28" y="212.7" width="7.58" height="7.58"/>
                    <rect class="cls-2" x="342.75" y="212.7" width="7.58" height="7.58"/>
                    <rect class="cls-2" x="281.01" y="212.7" width="7.58" height="7.58"/>
                    <rect class="cls-2" x="219.28" y="328.68" width="7.58" height="7.58"/>
                    <rect class="cls-2" x="342.75" y="328.68" width="7.58" height="7.58"/>
                    <rect class="cls-2" x="342.75" y="270.69" width="7.58" height="7.58"/>
                    <rect class="cls-2" x="219.28" y="270.69" width="7.58" height="7.58"/>
                    <rect class="cls-2" x="281.01" y="328.68" width="7.58" height="7.58"/>
                  </g>
                  <g>
                    <path class="cls-1" d="M306.11,301.44h-43.01l-8.2,19.85h-21.97l41.29-92.63h21.17l41.42,92.63h-22.5l-8.21-19.85ZM299.36,285.16l-14.69-35.47-14.69,35.47h29.38Z"/>
                    <path class="cls-2" d="M321.33,286.69l-78.55,12.51-9.85,22.1h21.97l8.2-19.85h43.01l8.2,19.85h22.5l-15.48-34.61Z"/>
                  </g>
                </g>
                <g>
                  <rect class="cls-5" x="121.67" y="257.87" width="115.89" height="33.11" transform="translate(454.05 94.81) rotate(90)"/>
                  <g>
                    <line class="cls-5" x1="179.62" y1="332.38" x2="179.62" y2="216.48"/>
                    <line class="cls-5" x1="163.06" y1="315.82" x2="196.17" y2="315.82"/>
                    <line class="cls-5" x1="163.06" y1="299.26" x2="196.17" y2="299.26"/>
                    <line class="cls-5" x1="163.06" y1="282.71" x2="196.17" y2="282.71"/>
                    <line class="cls-5" x1="163.06" y1="266.15" x2="196.17" y2="266.15"/>
                    <line class="cls-5" x1="163.06" y1="249.6" x2="196.17" y2="249.6"/>
                    <line class="cls-5" x1="163.06" y1="233.04" x2="196.17" y2="233.04"/>
                  </g>
                </g>
              </g>
              <path class="cls-8" d="M373.58,343.71c0,3.63-2.94,6.58-6.58,6.58h-214c-3.63,0-6.58-2.94-6.58-6.58"/>
            </g>
            <g>
              <path class="cls-2" d="M146.42,180.17h227.15v8.56c0,5.49-4.45,9.94-9.94,9.94h-207.27c-5.49,0-9.94-4.45-9.94-9.94v-8.56h0Z" transform="translate(520 378.84) rotate(180)"/>
              <g>
                <path class="cls-15" d="M357.08,189.42c0,2.35,1.91,4.26,4.26,4.26s4.26-1.91,4.26-4.26-1.91-4.26-4.26-4.26-4.26,1.91-4.26,4.26Z"/>
                <path class="cls-13" d="M343.65,189.42c0,2.35,1.91,4.26,4.26,4.26s4.26-1.91,4.26-4.26-1.91-4.26-4.26-4.26-4.26,1.91-4.26,4.26Z"/>
                <path class="cls-1" d="M330.22,189.42c0,2.35,1.91,4.26,4.26,4.26s4.26-1.91,4.26-4.26-1.91-4.26-4.26-4.26-4.26,1.91-4.26,4.26Z"/>
              </g>
              <path class="cls-10" d="M239.78,180.17h127.22c3.63,0,6.58,2.94,6.58,6.58v11.92"/>
            </g>
          </g>
          <g>
            <polygon class="cls-2" points="199.86 178.6 187.33 162.06 179.66 167.87 192.19 184.41 179.63 189.2 212.71 203.54 207.87 167.81 199.86 178.6"/>
            <polyline class="cls-6" points="179.66 167.87 192.19 184.41 179.63 189.2 212.71 203.54 207.87 167.81"/>
          </g>
          <g>
            <g>
              <path class="cls-15" d="M337.98,377.55c-11.97,9.97-29.16,12.54-43.99,5.16-15.65-7.79-24.06-24.34-22.22-40.77l15.25,1.71c-1.13,10.2,4.09,20.5,13.8,25.33,9.2,4.58,19.89,2.97,27.33-3.21l9.84,11.79Z"/>
              <path class="cls-1" d="M348.29,364.49c-2.58,5.19-6.13,9.57-10.31,13.06l-9.84-11.79c2.61-2.16,4.81-4.89,6.41-8.11,6.18-12.42,1.1-27.56-11.32-33.74l6.83-13.73c20.02,9.96,28.18,34.27,18.22,54.3Z"/>
              <path class="cls-13" d="M330.07,310.19l-6.83,13.73c-12.42-6.18-27.56-1.1-33.74,11.32-1.35,2.71-2.16,5.56-2.48,8.41l-15.25-1.71c.52-4.58,1.82-9.16,4-13.53,9.96-20.02,34.27-28.18,54.3-18.22Z"/>
            </g>
            <path class="cls-8" d="M286.87,346.45c0-13.87,11.29-25.16,25.16-25.16s25.16,11.29,25.16,25.16"/>
            <path class="cls-8" d="M271.53,346.45c0,22.37,18.13,40.5,40.5,40.5s40.5-18.13,40.5-40.5"/>
          </g>
          <g>
            <g>
              <g>
                <g>
                  <path class="cls-2" d="M181.73,411h-30.53c-1.17,0-2.12-.94-2.12-2.11l-.03-14.72h18.9l7.72,6.75,7.58,4.93c.99.64,1.47,1.84,1.2,2.99-.3,1.27-1.43,2.16-2.73,2.16"/>
                  <path class="cls-10" d="M169.05,401.81s2.05-1.24,5.26-2.08"/>
                  <path class="cls-10" d="M184.45,408.89c-.25.07-.51.11-.78.11h-34.48"/>
                  <path class="cls-10" d="M165.38,399.9s2.55-1.55,6.44-2.36"/>
                </g>
                <g>
                  <path class="cls-2" d="M154.53,411h-30.53c-1.17,0-2.12-.94-2.12-2.11l-.03-14.72h18.9l7.72,6.75,7.58,4.93c.99.64,1.47,1.84,1.2,2.99-.3,1.27-1.43,2.16-2.73,2.16"/>
                  <path class="cls-10" d="M141.84,401.81s2.05-1.24,5.26-2.08"/>
                  <path class="cls-10" d="M157.24,408.89c-.25.07-.51.11-.78.11h-34.48"/>
                  <path class="cls-10" d="M138.18,399.9s2.55-1.55,6.44-2.36"/>
                  <path class="cls-10" d="M140.75,394.17l7.72,6.75,7.58,4.93c.99.64,1.47,1.84,1.2,2.99-.3,1.27-1.43,2.16-2.73,2.16"/>
                </g>
              </g>
              <g>
                <g>
                  <path class="cls-13" d="M169,394.58l-22.52-.05.14-62.93-6.53-54.91,22.1-2.35,6.87,55.22c.06.46.08.92.08,1.39l-.14,63.62Z"/>
                  <line class="cls-8" x1="169.02" y1="387.31" x2="146.5" y2="387.26"/>
                </g>
                <g>
                  <path class="cls-13" d="M142.77,394.58l-22.64-.2,7.33-63.95-1.38-53.74h22.51l1.41,53.94c.01.53,0,1.05-.07,1.57l-7.15,62.37Z"/>
                  <line class="cls-8" x1="143.6" y1="387.31" x2="120.96" y2="387.11"/>
                  <polyline class="cls-8" points="134.2 276.78 135.65 332.67 129.4 387.11"/>
                  <path class="cls-8" d="M154.18,288.18l-5.27,1.02,1.07,41.44c.01.53,0,1.05-.07,1.57l-3.99,34.75"/>
                  <path class="cls-8" d="M134.51,286.39s7.76-.57,7.19-9.69"/>
                </g>
              </g>
              <g>
                <path class="cls-1" d="M158.33,242.27c-2.33-10.22-8.68-18.99-22.12-17.39-12.82,1.54-13.47,14.79-12.57,21.75.83,6.48,2.83,11.32,2.82,15.2-.02,3.95-.61,6.27-1.32,15.73,0,0,17.44,2.35,37.47-2.31-.95-14.1-1.28-19.88-4.27-32.99Z"/>
                <path class="cls-16" d="M136.2,224.88c-1.4.17-2.67.48-3.79.91,0,0,8.89,1.86,14.72.5-2.97-1.36-6.58-1.93-10.92-1.4Z"/>
                <path class="cls-8" d="M157.97,266.41s-6.5,5.26-16.09,6.6"/>
              </g>
              <g>
                <g>
                  <path class="cls-17" d="M199.06,248.39c.03.75-.56,1.38-1.31,1.41-.75.03-1.38-.56-1.41-1.31-.03-.75.56-1.38,1.31-1.41.75-.03,1.38.56,1.41,1.31Z"/>
                  <path class="cls-2" d="M198.28,248.42c.01.32-.24.59-.56.6-.32.01-.59-.24-.6-.56-.01-.32.24-.59.56-.6.32-.01.59.24.6.56Z"/>
                </g>
                <rect class="cls-17" x="182.58" y="229.62" width="33.51" height="2.72" rx="1.18" ry="1.18" transform="translate(447.83 53.97) rotate(95.33)"/>
                <g>
                  <rect class="cls-17" x="163.43" y="247.7" width="33.51" height="2.72" rx="1.18" ry="1.18" transform="translate(-8.71 6.54) rotate(-2.03)"/>
                  <g>
                    <path class="cls-2" d="M170.78,247.09h2.28c.27,0,.48.22.48.48v.41h-3.25v-.41c0-.27.22-.48.48-.48Z" transform="translate(-8.66 6.25) rotate(-2.03)"/>
                    <path class="cls-2" d="M174.65,246.96h2.28c.27,0,.48.22.48.48v.41h-3.25v-.41c0-.27.22-.48.48-.48Z" transform="translate(-8.66 6.38) rotate(-2.03)"/>
                    <path class="cls-2" d="M178.51,246.82h2.28c.27,0,.48.22.48.48v.41h-3.25v-.41c0-.27.22-.48.48-.48Z" transform="translate(-8.65 6.52) rotate(-2.03)"/>
                    <path class="cls-2" d="M182.37,246.68h2.28c.27,0,.48.22.48.48v.41h-3.25v-.41c0-.27.22-.48.48-.48Z" transform="translate(-8.64 6.66) rotate(-2.03)"/>
                    <path class="cls-2" d="M186.23,246.55h2.28c.27,0,.48.22.48.48v.41h-3.25v-.41c0-.27.22-.48.48-.48Z" transform="translate(-8.63 6.79) rotate(-2.03)"/>
                    <path class="cls-2" d="M190.09,246.41h2.28c.27,0,.48.22.48.48v.41h-3.25v-.41c0-.27.22-.48.48-.48Z" transform="translate(-8.63 6.93) rotate(-2.03)"/>
                  </g>
                </g>
              </g>
              <g>
                <path class="cls-16" d="M170.4,251.1c-4.39-.79-14.23-1.96-19.13-2.31-.03-.28-1.94-6.83-1.94-6.83-.43-1.44-.88-2.89-1.35-4.33l-18.87,4.36c.48,1.93,1.04,3.84,1.65,5.77.7,2.16,1.46,4.29,2.36,6.49,1.3,3.17,2.73,6.49,5.22,8.91,3.03,2.96,6.93,3.31,10.97,2.82.81-.1,6.95-1.2,9.15-1.75,4.38-1.1,10.91-3.07,14.48-5.04l-2.52-8.09Z"/>
                <g>
                  <path class="cls-16" d="M193.2,253.06c-.09-.71-.86-1.88-2.48-1.77h-.01c-.13-1.36-1.44-1.84-2.42-1.73,0,0-3.62.81-4.93,1.17-1.21.34-4.57,1.29-4.62.59-.04-.44.89-.75,1.1-.82l3.01-1.05c1.06-.35,1.59-1.44,1.36-2.5-.35-1.66-2.09-.99-2.55-.83,0,0-.41.13-1,.32-1.11.35-3.56.63-4.25.99-1.35.71-3.74,1.66-6.01,3.67l2.52,8.09c3.53-.28,8.13-1.28,10.74-2,.81-.22,4.78-1.2,6.4-1.77,0,0,0,0,.01,0,0,0,1.37-.42,2.2-.75.63-.25,1.05-.65.93-1.61Z"/>
                  <path class="cls-8" d="M182.76,254.75s2.13-.43,3.11-.6c.96-.17,2.27-.59,3.68-1.27.52-.25,1.23-.41,1.16-1.57"/>
                </g>
                <g>
                  <path class="cls-1" d="M146.1,231.12c1.55,3.94,3.01,9.12,3.01,9.12-7.1,3.82-13.55,5.14-19.39,5.03-1.44-4.35-2.27-7.71-2.27-7.71l18.65-6.43Z"/>
                  <path class="cls-8" d="M146.1,231.12c1.55,3.94,3.01,9.12,3.01,9.12-7.1,3.82-13.55,5.14-19.39,5.03-1.44-4.35-2.27-7.71-2.27-7.71"/>
                </g>
              </g>
              <g>
                <g>
                  <polygon class="cls-16" points="132.27 217.57 143.48 219.48 144.19 225.48 132.41 225.79 132.27 217.57"/>
                  <g class="cls-18">
                    <path class="cls-2" d="M144.21,219.01l.35,5.16c-3.5.02-6.77-1.47-7.96-4.65l7.61-.51Z"/>
                  </g>
                </g>
                <g>
                  <path class="cls-16" d="M151.35,204.32l-.23-3.46c-.46-6.83-6.42-12.04-13.25-11.58-6.83.46-12.04,6.42-11.58,13.25,0,0-.11,8.17,2.77,12.46,3.02,4.51,9.09,7.78,17.64,6.91,5.18-.53,5.5-5.06,5.05-11.88l2.42-1.75-2.81-3.95Z"/>
                  <path class="cls-2" d="M147.85,206.81h0c.56-.04.98-.52.94-1.07l-.08-1.26c-.04-.56-.52-.98-1.07-.94h0c-.56.04-.98.52-.94,1.07l.08,1.26c.04.56.52.98,1.07.94Z"/>
                  <path class="cls-4" d="M144.08,210.53c.05,1.72,1.31,3.22,3.07,3.53,1.76.3,3.45-.7,4.07-2.3l-7.14-1.22Z"/>
                  <g>
                    <path class="cls-2" d="M124.93,202.48c-.56-8.39,5.56-13.02,12.25-13.71,6.15-.63,13.95,1.51,13.95,1.51,0,0-.15,3.94-1.19,6.05,0,0-6.78-2.04-9.07-1.32-2.3.72-2.99,3.88-2.89,5.37.11,1.7,2.5,3.92-1.1,6.74l-1.86.13-2.72,11.78c-6.52-4.95-7.05-11.83-7.37-16.54Z"/>
                    <path class="cls-7" d="M129.47,191.74c2.16-1.68,4.88-2.67,7.7-2.96,6.15-.63,13.95,1.51,13.95,1.51,0,0-.15,3.94-1.19,6.05"/>
                  </g>
                  <g>
                    <path class="cls-16" d="M131.22,211.52c1.8,1.83,4.44,1.93,5.9.22,1.46-1.71,1.19-4.57-.61-6.4-1.8-1.83-4.44-1.93-5.9-.22-1.46,1.71-1.19,4.57.61,6.4Z"/>
                    <path class="cls-8" d="M131.68,206.58s3.46-.61,4.18,3.31"/>
                  </g>
                </g>
              </g>
            </g>
            <g>
              <g>
                <g>
                  <g>
                    <path class="cls-4" d="M336.38,411h30.53c1.17,0,2.12-.94,2.12-2.11l.03-14.72h-18.9l-7.72,6.75-7.58,4.93c-.99.64-1.47,1.84-1.2,2.99.3,1.27,1.43,2.16,2.73,2.16"/>
                    <path class="cls-8" d="M343.64,399.86c5.56-.99,10.06.44,10.06.44"/>
                    <path class="cls-8" d="M333.66,408.89c.25.07.51.11.78.11h34.48"/>
                    <path class="cls-8" d="M346.75,397.15c5.56-.99,10.07.43,10.07.43"/>
                  </g>
                  <g>
                    <polygon class="cls-16" points="369.06 394.17 350.15 394.17 348.8 379.83 368.15 379.83 369.06 394.17"/>
                    <polygon class="cls-2" points="368.64 387.6 349.42 386.32 348.8 379.83 368.15 379.83 368.64 387.6"/>
                  </g>
                </g>
                <g>
                  <g>
                    <polygon class="cls-16" points="399.1 394.17 380.2 394.17 378.89 379.83 398.23 379.83 399.1 394.17"/>
                    <polygon class="cls-2" points="398.63 386.43 379.61 387.69 378.89 379.83 398.23 379.83 398.63 386.43"/>
                  </g>
                  <g>
                    <path class="cls-4" d="M370.51,411h26.44c1.17,0,2.12-.94,2.12-2.11l.03-14.72h-18.9l-4.8,6.75-6.41,4.93c-.99.64-1.47,1.84-1.2,2.99.3,1.27,1.43,2.16,2.73,2.16"/>
                    <path class="cls-8" d="M375.4,400.92l-6.41,4.93c-.99.64-1.47,1.84-1.2,2.99.3,1.27,1.43,2.16,2.73,2.16"/>
                    <path class="cls-8" d="M387.84,400.29s-4.9-1.55-10.79-.3"/>
                    <path class="cls-8" d="M367.8,408.89c.25.07.51.11.78.11h30.38"/>
                    <path class="cls-8" d="M390.37,397.58s-4.9-1.55-10.79-.3"/>
                  </g>
                </g>
              </g>
              <g>
                <path class="cls-2" d="M377.41,385.19l22.46-1.5s-2.93-44.67-2.93-44.67c0,0-2.08-54.19-2.22-57.47-.14-3.37-1.52-9.66-5.28-13.45l-30.26,12.58-14.54,54.18c-.28,1.06-.39,2.16-.31,3.25l3.28,45.44,22.69,1.51-3.35-46.43,5.87-21.89,4.57,68.45Z"/>
                <path class="cls-10" d="M386.29,269.42c2.9,3.8,4.01,9.13,4.14,12.14.14,3.28,2.21,57.47,2.21,57.47l2.95,44.95"/>
                <polyline class="cls-10" points="373.5 326.65 371 289.21 364.96 289.21"/>
              </g>
              <g>
                <g>
                  <polygon class="cls-16" points="348.42 220.69 340.92 229.24 344.96 235.61 354.72 228.71 348.42 220.69"/>
                  <g class="cls-11">
                    <path class="cls-2" d="M340.06,229.33l2.99,4.23c2.73-2.19,4.33-5.42,3.24-8.63l-6.23,4.4Z"/>
                  </g>
                </g>
                <g>
                  <path class="cls-16" d="M328.4,216.36l-.6-3.41c-1.18-6.74,3.38-13.22,10.12-14.4,6.74-1.18,13.22,3.38,14.4,10.12,0,0,2.04,7.91.27,12.76-1.87,5.1-6.99,9.72-15.49,10.9-5.16.72-6.55-3.6-7.72-10.35l-2.77-1.12,1.79-4.5Z"/>
                  <path class="cls-2" d="M332.4,217.95h0c-.55.1-1.07-.27-1.17-.82l-.22-1.24c-.1-.55.27-1.07.82-1.17h0c.55-.1,1.07.27,1.17.82l.22,1.24c.1.55-.27,1.07-.82,1.17Z"/>
                  <path class="cls-4" d="M336.94,220.67c.36,1.69-.51,3.44-2.15,4.15-1.64.71-3.51.14-4.5-1.27l6.65-2.88Z"/>
                  <g>
                    <path class="cls-14" d="M353.92,208.04c-2.55-8.98-8.77-11.06-15.43-10.14-4.85.67-8.95,3.17-10.22,7.04h-.01s-2.29,2.3-1.35,7.73l2.13-.37v-3.73s1.28,3.51,1.28,3.51l3.39-.59v-3.73s1.28,3.51,1.28,3.51l3.2-.56s-.72-3.42-.47-5.37c1.25.96,1.57,3.06,1.77,4.21.29,1.65,1.22,5.22,5.28,5.76.72,1.64,2.47,5.61,6.43,8.93,3.71-4.72,4.13-11.23,2.72-16.19Z"/>
                    <path class="cls-14" d="M362.69,202.58c-.06,1.2-.36,2.16,0,3.35.64,2.05,3.28,2.72,5.13,3.01-2.31,1.62-5.11,2.75-8.11,2.52-2.97-.23-5.23-2.39-6.46-5-.98-2.07-1.51-4.82-.68-7.05.82-2.2,3.1-3.58,5.42-3.29,1.29.16,2.45.83,3.25,1.84,1.02,1.28,1.52,2.96,1.44,4.62Z"/>
                    <path class="cls-8" d="M351.2,224.23c3.07-3.91,3.89-9.05,3.27-13.52"/>
                    <path class="cls-8" d="M326.91,212.67l2.13-.37v-3.73s1.28,3.51,1.28,3.51l3.39-.59v-3.73s1.28,3.51,1.28,3.51l3.2-.56s-.72-3.42-.47-5.37"/>
                  </g>
                  <g>
                    <path class="cls-16" d="M349.67,218.58c-1.31,2.2-3.85,2.93-5.68,1.62-1.82-1.31-2.24-4.16-.92-6.36,1.31-2.2,3.85-2.93,5.68-1.62,1.82,1.31,2.24,4.16.93,6.36Z"/>
                    <path class="cls-8" d="M348.05,213.89s-3.5.23-3.27,4.21"/>
                  </g>
                </g>
              </g>
              <g>
                <path class="cls-15" d="M356.62,284.42c20.66-3.5,33.81-16.36,33.81-16.36-5.56-7.7-7.27-9.37-9.34-12.73-2.04-3.3-2.86-8.48-5.54-14.44-2.87-6.41-11.57-16.66-22.08-11.99-12.37,5.49-13.14,16.45-9.79,26.38,4.3,12.74,6.39,16.62,12.94,29.14Z"/>
                <path class="cls-9" d="M356.62,284.42c10.33-1.75,18.78-5.84,24.65-9.49"/>
                <path class="cls-8" d="M368.92,264.9s-3.6,8.36-12.3,12.92"/>
              </g>
              <g>
                <path class="cls-16" d="M366.38,243.67c-.65,4.07-2.84,14.65-3.92,17.3-1.06,2.6-2.11,5.56-4.16,7.57-2.04,1.99-4.99,2.78-7.75,3.01-2.71.22-12.09.03-14.42-.15-4.64-.34-10.67-1.13-15.31-2.1l-1.03-8.44c5.7-2,10.9-3.14,15.32-4.12,2.22-.49,4.42-.95,6.59-1.39.96-.2,1.93-.4,2.87-.59l1-4.91c.42-2.11.89-4.25,1.41-6.41.27-1.1.55-2.22.86-3.33l18.55,3.54Z"/>
                <g>
                  <path class="cls-15" d="M348.97,233.99c-1.25,4.04-2.33,9.31-2.33,9.31,7.36,3.28,13.89,4.13,19.71,3.58,1.11-4.45,1.69-7.86,1.69-7.86l-19.08-5.04Z"/>
                  <path class="cls-8" d="M347.85,238.05c-.71,2.82-1.2,5.25-1.2,5.25,7.36,3.28,13.89,4.13,19.71,3.58,1.11-4.45,1.69-7.86,1.69-7.86"/>
                </g>
                <g>
                  <path class="cls-16" d="M321.59,269.39c-4.02,1.03-6.56-3.22-7.37-4.59l-1.28,3.1c-.26.64-1.15.77-1.69.48-1.29-.69-.86-2.31-.86-2.31-.8.11-1.63-.62-1.73-1.42l-.06-1.44c-.89-.3-1.65-1.05-1.71-1.98-.13-2.12.21-3.88.53-4.84-.83.48-2.21.65-2.75-.09-.75-1.05.95-2.42,1.91-3.24l1.9-1.65c.5-.44,1.3-.48,1.73,0,.65.73,2.47,3.15,2.47,3.15.56-.09,1.13.07,1.55.45,0,0,3.49,2.67,5.97,6.29.81,2.71,1.37,8.09,1.37,8.09Z"/>
                  <polyline class="cls-8" points="310.39 266.08 311.55 262.56 313.68 259.99"/>
                  <polyline class="cls-8" points="308.6 263.21 308.93 260.75 310.24 258.21 311.97 256.94"/>
                  <polyline class="cls-8" points="307.42 256.39 309.05 255.02 312.71 254.6"/>
                </g>
              </g>
            </g>
          </g>
        </g>
      </g>
    </g>
  </g>
</svg>